# xmcd CD database file
# Copyright (C) 1995-1998 Ti Kan
#
# Track frame offsets:
#	150
#	1136
#	6035
#	21724
#	38362
#	45261
#	62902
#	75673
#	90266
#	115517
#	128513
#	139976
#	151706
#
# Disc length: 2027 seconds
#
# Revision: 1
# Processed by: cddbd v1.5.1PL2 Copyright (c) Steve Scherf et al.
# Submitted via: CDex 1.30Release
#
DISCID=8607e90d
DTITLE=die phils - unbegreifbar
DYEAR=2005
DGENRE=Native American
TTITLE0=intro intro
TTITLE1=intro
TTITLE2=ich gegen euch
TTITLE3=der beste
TTITLE4=ein liedchen
TTITLE5=dumme fotze
TTITLE6=schlechte laune
TTITLE7=achso
TTITLE8=7. stock zur freiheit
TTITLE9=deine dicke mutter
TTITLE10=perforiertes klopapier (swing disch)
TTITLE11=supastar
TTITLE12=outro
EXTD=YEAR: 2005 ID3G:  64
EXTT0=
EXTT1=
EXTT2=
EXTT3=
EXTT4=
EXTT5=
EXTT6=
EXTT7=
EXTT8=
EXTT9=
EXTT10=
EXTT11=
EXTT12=
PLAYORDER=
